# xmcd
#
# Track frame offsets: 
#        150
#        24255
#        37950
#        65070
#        94738
#        116505
#        142067
#        161582
#        178377
#        197077
#        220105
#        233835
#        251653
#        265703
#        284073
#        310305
#        333912
#
# Disc length: 4731 seconds
#
# Revision: 1
# Processed by: cddbd v1.5.2PL0 Copyright (c) Steve Scherf et al.
# Submitted via: ExactAudioCopy v1.1
#
DISCID=fe127911
DTITLE=Various Artist - Trail Of The Wolf - vol.06 - Good Whiskey Blu
DTITLE=es  CD1
DYEAR=2017
DGENRE=Blues
TTITLE0=Michael Barclay Blues Band - Don't Want To Touch That Woman
TTITLE1=Sy Klopps Blues Band - Steppin' Stone
TTITLE2=Smokehouse - Cadillac In Swamp
TTITLE3=Chris Hicks - Blues Got Me Down
TTITLE4=Metro Blues All Stars - Strom Coming Thru
TTITLE5=Freddie and The Screamers - Full Moon On Mian Street
TTITLE6=Anthony Paul - Don't Let The Same Dog Bite You Twice
TTITLE7=Chris Goddard - Minglewood Blues
TTITLE8=Richie Barron - Somebody's Got To You
TTITLE9=Blue By Nature - Love Me All Night
TTITLE10=Bluefeans - Somebody Told Me
TTITLE11=Buddy Ray - Cab Driver
TTITLE12=Doug Jay - Watch Your Step
TTITLE13=Tim Wagoner and Wild Blue Yonder - My Old Friens The Blues
TTITLE14=Chuck Vincent and Shuffle - Boogie 'Til We All Fall Down
TTITLE15=RedHot Blues - Haunted By My Past
TTITLE16=Kenny Lee - Blues Party
EXTD=
EXTT0=
EXTT1=
EXTT2=
EXTT3=
EXTT4=
EXTT5=
EXTT6=
EXTT7=
EXTT8=
EXTT9=
EXTT10=
EXTT11=
EXTT12=
EXTT13=
EXTT14=
EXTT15=
EXTT16=
PLAYORDER=
